# xmcd
#
# Track frame offsets: 
#        150
#        19172
#        34357
#        49095
#        65920
#        86677
#        104082
#        121745
#        142857
#        158225
#        173627
#
# Disc length: 2714 seconds
#
# Revision: 0
# Processed by: cddbd v1.4PL0 Copyright (c) Steve Scherf et al.
# Submitted via: ExactAudioCopy v0.90b4
#
DISCID=950a980b
DTITLE=Jesuitas - Rio al interior
DYEAR=2001
DGENRE=Gospel
TTITLE0=Libertad
TTITLE1=Río al interior
TTITLE2=Señora
TTITLE3=Jesús !Quién eres Tú?
TTITLE4=¡Cómo no ver!
TTITLE5=Una vez más rezaré
TTITLE6=Cristo nace cada día
TTITLE7=María
TTITLE8=Renacer
TTITLE9=Sacerdotal
TTITLE10=Río al interior
EXTD=
EXTT0=
EXTT1=
EXTT2=
EXTT3=
EXTT4=
EXTT5=
EXTT6=
EXTT7=
EXTT8=
EXTT9=
EXTT10=
PLAYORDER=
